<svg width="68" height="42" viewBox="0 0 68 42" fill="none" xmlns="http://www.w3.org/2000/svg">
<path fill-rule="evenodd" clip-rule="evenodd" d="M0 21C0 32.598 9.402 42 21 42C32.598 42 42 32.598 42 21C42 9.402 32.598 0 21 0C9.402 0 0 9.402 0 21ZM32.119 35.258C32.278 35.482 32.476 35.769 32.633 36C29.416 38.498 25.387 40 20.999 40C16.611 40 12.583 38.498 9.366 36C9.524 35.769 9.722 35.483 9.879 35.259C10.158 34.864 10.434 34.471 10.686 34.075C10.686 34.075 10.6867 34.0742 10.6879 34.0728C10.7469 34.0006 12.2242 32.195 17.081 31.998H17.084C18.721 31.998 19.967 30.709 19.967 28.934L20 28V27L19 26C18.275 25.657 17.333 25.043 16.545 24.492L16.447 24.43C15.797 24.022 15.061 23.281 14.998 22.968L14.963 22.616C14.591 20.711 14 17.23 14 16C14 11.224 16.225 9 21 9C25.71 9 28 11.29 28 16C28 17.198 27.409 20.696 27.036 22.619L27 23C26.923 23.297 26.111 24.074 25.53 24.443L25.395 24.536C24.66 25.091 23.731 25.661 23 26L22 27V28L22.032 28.934C22.035 30.712 23.283 32 25 32C29.935 32.224 31.305 34.062 31.317 34.08C31.565 34.47 31.842 34.864 32.119 35.258L32.119 35.258ZM2 21C2 10.507 10.507 2 21 2C31.493 2 40 10.507 40 21C40 26.386 37.749 31.237 34.149 34.694C34.0153 34.4962 33.8785 34.2985 33.7417 34.1009C33.4878 33.734 33.234 33.3672 33 33C33 33 31.424 30.288 25 30C24.355 30 24.033 29.578 24.035 28.934H24.034C24.034 28.413 24.035 28 24.035 28C24.035 27.935 24.0411 27.8741 24.0471 27.8131C24.0515 27.769 24.0559 27.7248 24.058 27.679C24.8 27.335 25.646 26.854 26.601 26.133C26.601 26.133 29.001 24.611 29.001 23C29.001 23 30.001 17.838 30.001 16C30.001 11.356 27.921 7 21.001 7C13.987 7 12.001 11.356 12.001 16C12.001 17.884 13.001 23 13.001 23C13.001 24.657 15.401 26.133 15.401 26.133C16.376 26.813 17.216 27.285 17.94 27.627C17.9425 27.6794 17.9476 27.7303 17.9527 27.7812C17.9598 27.8526 17.967 27.9241 17.967 28C17.967 28 17.967 28.413 17.968 28.934H17.967C17.967 29.578 17.645 30 17 30C10.67 30.257 9 33 9 33C8.76747 33.3649 8.5149 33.7295 8.26226 34.0941C8.12377 34.294 7.98526 34.4939 7.85 34.694C4.25 31.237 2 26.386 2 21ZM59 26.5882L51 15.5882L51.8087 15L59.6182 25.7381L67 15.5882L67.8087 16.1763L59.8087 27.1763L59 26.5882Z" fill="black"/>
</svg>
