<svg width="458" height="466" viewBox="0 0 458 466" fill="none" xmlns="http://www.w3.org/2000/svg">
<path d="M368.7 236.5C366 233 361 232.2 357.5 234.9C355.8 236.2 354.7 238.1 354.4 240.2L350 271.3C349.9 271.7 349.8 272.1 349.6 272.5C357.8 261.7 364.3 249.7 369.2 237.1L368.7 236.5ZM342 278.2C341.6 278.2 341.2 278.2 340.9 278.1L293.4 271.3C289 270.7 286 266.6 286.6 262.2L291 231.1C291.6 226.7 288.6 222.7 284.2 222.1C282.1 221.8 280 222.3 278.3 223.6L253.1 242.5C249.6 245.2 244.6 244.4 241.9 240.9L213.1 202.5C210.4 199 211.2 194 214.7 191.3L239.8 172.4C243.3 169.7 244.1 164.7 241.4 161.2C240.1 159.5 238.2 158.4 236.1 158.1L205 153.7C200.6 153.1 197.6 149 198.2 144.7L205 97.2C205.6 92.8 209.7 89.8 214 90.4L245.1 94.8C248.3 95.3 251.5 93.7 253.1 91C254.8 88.2 254.6 84.7 252.6 82.1L234 56.9C231.3 53.4 232.1 48.4 235.6 45.7L240.1 42.3C232.8 41.9 225.4 42.1 218.1 42.9C139.1 51.9 82.3 123.3 91.4 202.3C96.3 245.3 120.3 283.9 156.8 307.2C170.1 315.5 178.3 330 178.5 345.6V378C178.5 391.3 189.2 402 202.5 402H266.5C279.8 402 290.5 391.3 290.5 378V346.3C290.7 330.3 299.1 315.4 312.7 306.9C325.3 298.7 336.6 288.6 346.1 277C344.8 277.8 343.5 278.2 342 278.2ZM242.5 378H226.5V354H242.5V378ZM226.5 338C226.5 316.8 213.5 297.9 193.7 290.3C136.1 267.8 107.7 202.8 130.2 145.2C138.9 122.9 154.6 104 174.8 91.2L183.3 104.7C138.4 132.9 124.9 192.2 153.2 237.1C164.1 254.5 180.4 267.9 199.5 275.4C225.4 285.3 242.5 310.2 242.5 338H226.5ZM202.5 442V450C202.5 458.8 209.7 466 218.5 466H250.5C259.3 466 266.5 458.8 266.5 450V442H202.5ZM152.5 314C147.8 310.9 143.2 307.6 138.8 304C126.7 327.5 97.9 336.8 74.4 324.7C58.4 316.5 48.4 300 48.4 282C48.4 257.8 66.5 237.4 90.4 234.4C87.5 225.6 85.3 216.5 84.1 207.3L82.7 214C80.9 222.6 72.4 228.2 63.7 226.4C61.6 226 59.7 225.1 57.9 223.9L41.3 212.5L26.7 227L38.2 243.7C43.2 251 41.4 260.9 34.1 266C32.4 267.2 30.4 268 28.3 268.5L8.40001 272.7V291.7L28.3 295.9C36.9 297.7 42.5 306.2 40.7 314.9C40.3 317 39.4 318.9 38.2 320.7L26.8 337L41.4 351.5L58 340.1C65.3 335.1 75.2 336.9 80.3 344.2C81.5 345.9 82.3 347.9 82.8 350L87 370H106L110.2 350.1C112 341.5 120.5 335.9 129.2 337.7C131.3 338.1 133.2 339 135 340.2L151.6 351.6L168.8 334.4C165.7 326 160 318.8 152.5 314ZM202.5 410H266.5V426H202.5V410ZM434.3 137.9C421.2 136 412.1 123.9 413.9 110.7C414.8 104.4 418.2 98.7 423.3 94.9L442 80.9L422.8 55.3L404.1 69.4C393.5 77.4 378.5 75.2 370.5 64.6C366.7 59.5 365 53.1 365.9 46.8L369.2 23.6L337.5 19.1L334.2 42.3C332.3 55.4 320.2 64.5 307 62.7C300.7 61.8 295 58.4 291.2 53.3L277.1 34.5L251.5 53.7L265.6 72.4C273.6 83 271.4 98 260.8 106C255.7 109.8 249.3 111.5 243 110.6L219.8 107.3L215.3 139L238.5 142.3C251.6 144.2 260.7 156.3 258.9 169.5C258 175.8 254.6 181.5 249.5 185.3L230.8 199.4L250 225L268.7 210.9C279.3 202.9 294.3 205.1 302.3 215.7C306.1 220.8 307.8 227.2 306.9 233.5L303.6 256.7L335.3 261.2L338.6 238C340.5 224.9 352.6 215.8 365.8 217.6C372.1 218.5 377.8 221.9 381.6 227L395.7 245.7L421.3 226.5L407.2 207.7C399.2 197.1 401.4 182.1 412 174.1C417.1 170.3 423.5 168.6 429.8 169.5L453 172.8L457.5 141.1L434.3 137.9ZM336.4 188.1C309.9 188.1 288.4 166.6 288.4 140.1C288.4 113.6 309.9 92.1 336.4 92.1C362.9 92.1 384.4 113.6 384.4 140.1C384.4 166.6 362.9 188.1 336.4 188.1ZM386.5 298H442.5V314H386.5V298ZM373.4 352.1L383.6 339.8L431.6 379.8L421.4 392.1L373.4 352.1ZM338.5 362H354.5V418H338.5V362ZM0.600006 138.2L64.6 122.2L68.5 137.7L4.50001 153.7L0.600006 138.2ZM13.8 56.5L23.1 43.5L79.1 83.5L69.8 96.5L13.8 56.5ZM82.4 4L97.9 0L114.3 64L98.8 68L82.4 4Z" fill="#B3404A"/>
</svg>
