<svg width="679" height="492" viewBox="0 0 679 492" fill="none" xmlns="http://www.w3.org/2000/svg">
<path d="M1 25.4999C1 25.4999 75.7979 25.5 35.5 104.5C-8.75698 191.261 46.5 262 123.5 225C211.219 182.849 247 231 247 231" stroke="#20332C" stroke-width="10"/>
<path d="M436.703 230.466C458.419 190.269 482.359 154.505 526.752 164.784C570.104 174.821 549.32 243.069 578.582 276.706C609.433 312.169 654.501 282.232 672.818 325.573C694.718 377.392 655.051 448.125 606.853 476.904C547.761 512.187 472.737 481.49 429.897 427.511C386.649 373.017 403.616 291.711 436.703 230.466Z" fill="#98F576"/>
<path d="M121.2 153.5C113.4 153.5 106.1 152.15 99.3 149.45C92.5 146.65 86.55 142.8 81.45 137.9C76.45 133 72.5 127.3 69.6 120.8C66.8 114.2 65.4 107.1 65.4 99.5C65.4 91.8 66.8 84.7 69.6 78.2C72.5 71.6 76.5 65.85 81.6 60.95C86.7 56.05 92.6 52.25 99.3 49.55C106.1 46.75 113.4 45.35 121.2 45.35C127 45.35 132.6 46.15 138 47.75C143.4 49.35 148.4 51.6 153 54.5C157.7 57.4 161.7 60.9 165 65L150.3 79.55C146.5 74.85 142.1 71.3 137.1 68.9C132.2 66.5 126.9 65.3 121.2 65.3C116.5 65.3 112.1 66.2 108 68C103.9 69.7 100.35 72.1 97.35 75.2C94.35 78.2 92 81.8 90.3 86C88.6 90.1 87.75 94.6 87.75 99.5C87.75 104.3 88.6 108.8 90.3 113C92 117.1 94.4 120.7 97.5 123.8C100.6 126.8 104.2 129.15 108.3 130.85C112.5 132.55 117.05 133.4 121.95 133.4C127.45 133.4 132.6 132.25 137.4 129.95C142.2 127.65 146.45 124.35 150.15 120.05L164.4 134.15C161.1 138.15 157.15 141.6 152.55 144.5C147.95 147.4 142.95 149.65 137.55 151.25C132.25 152.75 126.8 153.5 121.2 153.5ZM272.079 351.5C264.279 351.5 256.979 350.15 250.179 347.45C243.379 344.65 237.429 340.8 232.329 335.9C227.329 331 223.379 325.3 220.479 318.8C217.679 312.2 216.279 305.1 216.279 297.5C216.279 289.8 217.679 282.7 220.479 276.2C223.379 269.6 227.379 263.85 232.479 258.95C237.579 254.05 243.479 250.25 250.179 247.55C256.979 244.75 264.279 243.35 272.079 243.35C277.879 243.35 283.479 244.15 288.879 245.75C294.279 247.35 299.279 249.6 303.879 252.5C308.579 255.4 312.579 258.9 315.879 263L301.179 277.55C297.379 272.85 292.979 269.3 287.979 266.9C283.079 264.5 277.779 263.3 272.079 263.3C267.379 263.3 262.979 264.2 258.879 266C254.779 267.7 251.229 270.1 248.229 273.2C245.229 276.2 242.879 279.8 241.179 284C239.479 288.1 238.629 292.6 238.629 297.5C238.629 302.3 239.479 306.8 241.179 311C242.879 315.1 245.279 318.7 248.379 321.8C251.479 324.8 255.079 327.15 259.179 328.85C263.379 330.55 267.929 331.4 272.829 331.4C278.329 331.4 283.479 330.25 288.279 327.95C293.079 325.65 297.329 322.35 301.029 318.05L315.279 332.15C311.979 336.15 308.029 339.6 303.429 342.5C298.829 345.4 293.829 347.65 288.429 349.25C283.129 350.75 277.679 351.5 272.079 351.5Z" fill="#98F576"/>
<path d="M200.666 153.35C195.066 153.35 190.116 152.35 185.816 150.35C181.516 148.25 178.166 145.4 175.766 141.8C173.366 138.2 172.166 134.05 172.166 129.35C172.166 121.85 174.966 116.05 180.566 111.95C186.266 107.75 194.066 105.65 203.966 105.65C210.766 105.65 217.166 106.7 223.166 108.8V103.1C223.166 98.6 221.766 95.2 218.966 92.9C216.166 90.6 212.066 89.45 206.666 89.45C203.366 89.45 199.816 90 196.016 91.1C192.216 92.1 187.816 93.7 182.816 95.9L175.316 80.75C181.516 77.95 187.416 75.85 193.016 74.45C198.716 73.05 204.416 72.35 210.116 72.35C220.616 72.35 228.766 74.9 234.566 80C240.466 85 243.416 92.1 243.416 101.3V152H223.166V146.45C219.966 148.85 216.516 150.6 212.816 151.7C209.116 152.8 205.066 153.35 200.666 153.35ZM191.666 128.9C191.666 131.9 192.966 134.3 195.566 136.1C198.166 137.8 201.616 138.65 205.916 138.65C209.316 138.65 212.466 138.25 215.366 137.45C218.266 136.55 220.866 135.25 223.166 133.55V122.15C220.666 121.15 218.066 120.4 215.366 119.9C212.666 119.4 209.766 119.15 206.666 119.15C201.966 119.15 198.266 120.05 195.566 121.85C192.966 123.55 191.666 125.9 191.666 128.9ZM258.969 182.6V73.85H279.219V80.3C285.619 75.3 293.019 72.8 301.419 72.8C308.819 72.8 315.519 74.6 321.519 78.2C327.519 81.8 332.269 86.65 335.769 92.75C339.369 98.75 341.169 105.5 341.169 113C341.169 120.5 339.369 127.3 335.769 133.4C332.169 139.4 327.319 144.2 321.219 147.8C315.119 151.3 308.319 153.05 300.819 153.05C296.919 153.05 293.169 152.55 289.569 151.55C285.969 150.45 282.619 148.9 279.519 146.9V182.6H258.969ZM298.119 135.65C302.419 135.65 306.269 134.65 309.669 132.65C313.169 130.65 315.919 127.95 317.919 124.55C319.919 121.15 320.919 117.3 320.919 113C320.919 108.7 319.919 104.85 317.919 101.45C315.919 97.95 313.169 95.25 309.669 93.35C306.269 91.35 302.419 90.35 298.119 90.35C294.319 90.35 290.819 91 287.619 92.3C284.519 93.5 281.819 95.35 279.519 97.85V128.3C281.719 130.5 284.419 132.3 287.619 133.7C290.919 135 294.419 135.65 298.119 135.65ZM353.745 152V73.85H374.295V152H353.745ZM363.945 64.55C360.745 64.55 357.995 63.4 355.695 61.1C353.395 58.8 352.245 56.05 352.245 52.85C352.245 49.55 353.395 46.8 355.695 44.6C357.995 42.3 360.745 41.15 363.945 41.15C367.245 41.15 369.995 42.3 372.195 44.6C374.495 46.8 375.645 49.55 375.645 52.85C375.645 56.05 374.495 58.8 372.195 61.1C369.995 63.4 367.245 64.55 363.945 64.55ZM427.416 153.2C418.716 153.2 412.116 151.25 407.616 147.35C403.216 143.35 401.016 137.55 401.016 129.95V90.95H384.966V73.85H401.016V53.9L421.566 49.25V73.85H443.916V90.95H421.566V125.75C421.566 129.35 422.366 131.95 423.966 133.55C425.566 135.05 428.366 135.8 432.366 135.8C434.366 135.8 436.166 135.7 437.766 135.5C439.466 135.2 441.316 134.7 443.316 134V150.95C441.216 151.65 438.616 152.2 435.516 152.6C432.416 153 429.716 153.2 427.416 153.2ZM478.84 153.35C473.24 153.35 468.29 152.35 463.99 150.35C459.69 148.25 456.34 145.4 453.94 141.8C451.54 138.2 450.34 134.05 450.34 129.35C450.34 121.85 453.14 116.05 458.74 111.95C464.44 107.75 472.24 105.65 482.14 105.65C488.94 105.65 495.34 106.7 501.34 108.8V103.1C501.34 98.6 499.94 95.2 497.14 92.9C494.34 90.6 490.24 89.45 484.84 89.45C481.54 89.45 477.99 90 474.19 91.1C470.39 92.1 465.99 93.7 460.99 95.9L453.49 80.75C459.69 77.95 465.59 75.85 471.19 74.45C476.89 73.05 482.59 72.35 488.29 72.35C498.79 72.35 506.94 74.9 512.74 80C518.64 85 521.59 92.1 521.59 101.3V152H501.34V146.45C498.14 148.85 494.69 150.6 490.99 151.7C487.29 152.8 483.24 153.35 478.84 153.35ZM469.84 128.9C469.84 131.9 471.14 134.3 473.74 136.1C476.34 137.8 479.79 138.65 484.09 138.65C487.49 138.65 490.64 138.25 493.54 137.45C496.44 136.55 499.04 135.25 501.34 133.55V122.15C498.84 121.15 496.24 120.4 493.54 119.9C490.84 119.4 487.94 119.15 484.84 119.15C480.14 119.15 476.44 120.05 473.74 121.85C471.14 123.55 469.84 125.9 469.84 128.9ZM537.143 152V47L557.693 43.55V152H537.143ZM359.045 351.35C353.445 351.35 348.495 350.35 344.195 348.35C339.895 346.25 336.545 343.4 334.145 339.8C331.745 336.2 330.545 332.05 330.545 327.35C330.545 319.85 333.345 314.05 338.945 309.95C344.645 305.75 352.445 303.65 362.345 303.65C369.145 303.65 375.545 304.7 381.545 306.8V301.1C381.545 296.6 380.145 293.2 377.345 290.9C374.545 288.6 370.445 287.45 365.045 287.45C361.745 287.45 358.195 288 354.395 289.1C350.595 290.1 346.195 291.7 341.195 293.9L333.695 278.75C339.895 275.95 345.795 273.85 351.395 272.45C357.095 271.05 362.795 270.35 368.495 270.35C378.995 270.35 387.145 272.9 392.945 278C398.845 283 401.795 290.1 401.795 299.3V350H381.545V344.45C378.345 346.85 374.895 348.6 371.195 349.7C367.495 350.8 363.445 351.35 359.045 351.35ZM350.045 326.9C350.045 329.9 351.345 332.3 353.945 334.1C356.545 335.8 359.995 336.65 364.295 336.65C367.695 336.65 370.845 336.25 373.745 335.45C376.645 334.55 379.245 333.25 381.545 331.55V320.15C379.045 319.15 376.445 318.4 373.745 317.9C371.045 317.4 368.145 317.15 365.045 317.15C360.345 317.15 356.645 318.05 353.945 319.85C351.345 321.55 350.045 323.9 350.045 326.9ZM454.098 351.5C446.898 351.5 440.248 350.6 434.148 348.8C428.048 346.9 422.748 344.2 418.248 340.7L428.448 327.05C432.948 330.05 437.248 332.3 441.348 333.8C445.548 335.3 449.698 336.05 453.798 336.05C458.398 336.05 462.048 335.3 464.748 333.8C467.548 332.2 468.948 330.15 468.948 327.65C468.948 325.65 468.148 324.05 466.548 322.85C465.048 321.65 462.598 320.8 459.198 320.3L444.198 318.05C436.398 316.85 430.498 314.35 426.498 310.55C422.498 306.65 420.498 301.55 420.498 295.25C420.498 290.15 421.798 285.8 424.398 282.2C427.098 278.5 430.848 275.65 435.648 273.65C440.548 271.55 446.348 270.5 453.048 270.5C458.748 270.5 464.298 271.3 469.698 272.9C475.198 274.5 480.348 276.95 485.148 280.25L475.248 293.6C470.948 290.9 466.848 288.95 462.948 287.75C459.048 286.55 455.098 285.95 451.098 285.95C447.398 285.95 444.398 286.65 442.098 288.05C439.898 289.45 438.798 291.3 438.798 293.6C438.798 295.7 439.598 297.35 441.198 298.55C442.798 299.75 445.548 300.6 449.448 301.1L464.448 303.35C472.148 304.45 478.048 306.95 482.148 310.85C486.248 314.65 488.298 319.6 488.298 325.7C488.298 330.7 486.798 335.15 483.798 339.05C480.798 342.85 476.748 345.9 471.648 348.2C466.548 350.4 460.698 351.5 454.098 351.5ZM506.03 350V245L526.58 240.5V278.3C532.48 273 539.78 270.35 548.48 270.35C554.58 270.35 559.93 271.7 564.53 274.4C569.23 277 572.88 280.65 575.48 285.35C578.08 289.95 579.38 295.35 579.38 301.55V350H558.83V304.55C558.83 299.45 557.38 295.45 554.48 292.55C551.58 289.55 547.63 288.05 542.63 288.05C539.13 288.05 536.03 288.75 533.33 290.15C530.63 291.45 528.38 293.35 526.58 295.85V350H506.03Z" fill="#20332C"/>
<path d="M534.5 28C534.5 28 570.382 4.12601 582.5 50C589.5 76.5003 613.5 87.5002 642 76.5002C655.576 71.2604 661.5 60.0002 657.5 46.0002C651.897 26.3891 627.5 30.5002 616.5 46.0002C582.45 93.9791 652 181 652 181" stroke="#20332C" stroke-width="10"/>
<path d="M613.423 196.175C604.864 187.019 596.119 178.065 584.393 182.49C571.516 187.35 590.566 203.051 592.371 216.695C595.217 238.213 596.087 261.682 615.834 252.672C635.925 243.506 628.504 212.307 613.423 196.175Z" fill="#98F576"/>
<path d="M649.565 254.061C643.081 256.684 638.573 262.52 640.415 269.105C642.105 275.144 647.7 277.828 654.139 277.994C662.41 278.207 670.517 272.34 669.974 264.318C669.385 255.618 657.849 250.709 649.565 254.061Z" fill="#98F576"/>
</svg>
