<svg width="50" height="50" viewBox="0 0 50 50" fill="none" xmlns="http://www.w3.org/2000/svg">
<path d="M24.8 11.9C17.8 11.9 12 17.6 12 24.7C12 31.8 17.7 37.5 24.8 37.5C31.9 37.5 37.6 31.7 37.6 24.7C37.6 17.7 31.8 11.9 24.8 11.9ZM24.8 32.9C20.3 32.9 16.6 29.2 16.6 24.7C16.6 20.2 20.3 16.5 24.8 16.5C29.3 16.5 33 20.2 33 24.7C33 29.2 29.3 32.9 24.8 32.9Z" fill="white"/>
<path d="M38.1 14.5C39.7016 14.5 41 13.2016 41 11.6C41 9.99837 39.7016 8.7 38.1 8.7C36.4984 8.7 35.2 9.99837 35.2 11.6C35.2 13.2016 36.4984 14.5 38.1 14.5Z" fill="white"/>
<path d="M45.6 4.1C43 1.4 39.3 0 35.1 0H14.5C5.8 0 0 5.8 0 14.5V35C0 39.3 1.4 43 4.2 45.7C6.9 48.3 10.5 49.6 14.6 49.6H35C39.3 49.6 42.9 48.2 45.5 45.7C48.2 43.1 49.6 39.4 49.6 35.1V14.5C49.6 10.3 48.2 6.7 45.6 4.1ZM45.2 35.1C45.2 38.2 44.1 40.7 42.3 42.4C40.5 44.1 38 45 35 45H14.6C11.6 45 9.1 44.1 7.3 42.4C5.5 40.6 4.6 38.1 4.6 35V14.5C4.6 11.5 5.5 9 7.3 7.2C9 5.5 11.6 4.6 14.6 4.6H35.2C38.2 4.6 40.7 5.5 42.5 7.3C44.2 9.1 45.2 11.6 45.2 14.5V35.1Z" fill="white"/>
</svg>
