<?xml version="1.0" encoding="UTF-8" standalone="no"?>
<!-- Created with Inkscape (http://www.inkscape.org/) -->

<svg
   width="112.44791mm"
   height="65.058693mm"
   viewBox="0 0 112.44791 65.058693"
   version="1.1"
   id="svg57533"
   xmlns:xlink="http://www.w3.org/1999/xlink"
   xmlns="http://www.w3.org/2000/svg"
   xmlns:svg="http://www.w3.org/2000/svg">
  <defs
     id="defs57530">
    <linearGradient
       xlink:href="#linearGradient5791"
       id="linearGradient22248"
       gradientUnits="userSpaceOnUse"
       gradientTransform="translate(66.37515,640.59454)"
       x1="-346.8436"
       y1="320.92606"
       x2="-429.0574"
       y2="263.65042" />
    <linearGradient
       id="linearGradient5791">
      <stop
         style="stop-color:#000000;stop-opacity:1;"
         offset="0"
         id="stop5787" />
      <stop
         style="stop-color:#000000;stop-opacity:0;"
         offset="1"
         id="stop5789" />
    </linearGradient>
  </defs>
  <g
     id="layer1"
     transform="translate(82.109279,-44.44542)">
    <g
       id="g57510"
       transform="matrix(0.26458333,0,0,0.26458333,62.504114,-163.45494)">
      <path
         id="path22224"
         style="fill:#98f576;fill-opacity:1;stroke-width:11;stroke-linecap:round;stroke-linejoin:round"
         d="m -362.10532,785.86482 c -44.18278,2.20531 -80,39.81029 -80,83.99307 1e-4,21.21728 8.42871,41.14482 23.43164,55.39881 15.00284,14.25409 35.35108,21.66705 56.56836,20.60812 21.21728,-1.05913 39.87137,-13.56164 56.73351,-26.06078 l -28.2832,-26.87149 c -8.07212,7.30007 -17.67632,12.59759 -28.28516,13.12665 -10.58633,0.4714 -20.88351,-3.46851 -28.34093,-10.6103 -7.51521,-7.08247 -11.76726,-17.0031 -11.82422,-27.58754 0,-22.09139 17.90861,-40.89388 40,-41.99654 10.60884,-0.52999 20.78334,3.17612 28.28516,10.30303 l 28.2832,-29.69491 c -15.00284,-14.25409 -35.35108,-21.66705 -56.56836,-20.60812 z" />
      <path
         id="path22226"
         style="color:#000000;fill:#20332c;fill-opacity:1;stroke-linecap:round;-inkscape-stroke:none"
         d="m -187.21094,788.43946 c -1.17666,-0.001 -2.36159,0.0284 -3.55273,0.0879 l -105.85742,5.28321 c 0.56394,0.50869 1.13952,1.00105 1.6914,1.52539 l 10.60547,10.07812 -0.26172,0.27344 0.26953,0.25586 -12.25195,12.86328 105.80469,-5.2793 c 24.69906,-1.23281 44.19336,17.28726 44.19336,41.98633 v 88.84571 c 0,24.69904 -19.4943,45.16758 -44.19336,46.40039 l -26.8418,1.33789 12.78125,12.14452 -0.26172,0.2734 0.26953,0.2559 -10.35937,10.875 c -0.45595,0.4787 -0.93415,0.9316 -1.39844,1.4004 l 25.81055,-1.2871 c 38.11662,-1.9025 69.19336,-34.53183 69.19336,-72.64845 v -88.84571 c 0,-36.92546 -29.16414,-65.78797 -65.64063,-65.82617 z" />
      <path
         id="path22228"
         style="color:#000000;fill:#20332c;fill-opacity:1;stroke-linecap:round;-inkscape-stroke:none"
         d="m -428.21875,800.37892 -49.16016,2.45312 c -38.11662,1.90253 -69.1914,34.52987 -69.1914,72.64649 v 88.8457 c 0,38.11667 31.07478,67.64277 69.1914,65.74027 l 129.29297,-6.4532 c -0.56513,-0.5097 -1.14228,-1.0038 -1.69531,-1.5293 -6.93382,-6.5878 -12.66794,-14.2061 -17.10742,-22.53121 l -110.49024,5.51371 c -24.69906,1.2328 -44.1914,-17.28731 -44.1914,-41.98637 v -88.8457 c 0,-24.69907 19.49234,-45.16758 44.1914,-46.40039 l 30.58789,-1.52539 c 4.78169,-9.5986 11.07553,-18.3493 18.57227,-25.92773 z" />
      <path
         id="path22230"
         style="fill:url(#linearGradient22248);fill-opacity:1;stroke-width:11;stroke-linecap:round;stroke-linejoin:round"
         d="m -333.65415,892.93243 c -8.07212,7.30007 -17.67631,12.59789 -28.28515,13.12695 -1.72569,0.0769 -3.43745,-0.006 -5.13672,-0.1582 l -24.76172,35.69922 c 9.36828,3.28373 19.44538,4.77709 29.73242,4.26367 6.97122,-0.34799 13.66031,-1.94863 20.10547,-4.36133 l 23.1582,-34.49609 z" />
      <path
         id="path22232"
         style="fill:#98f576;fill-opacity:1;stroke-width:11;stroke-linecap:round;stroke-linejoin:round"
         d="m -282.60532,871.55669 a 78.028367,82.02144 44.285191 0 0 -80,83.99308 78.028367,82.02144 44.285191 0 0 23.43164,55.39883 78.028365,82.021438 44.285191 0 0 56.56836,20.6081 78.028365,82.021438 44.285191 0 0 56.56836,-26.2552 l -28.2832,-26.87146 a 39.014183,41.010719 44.285191 0 1 -28.28516,13.12665 39.014183,41.010719 44.285191 0 1 -28.17578,-10.41592 39.014183,41.01072 44.285191 0 1 -11.82422,-27.58754 39.014183,41.01072 44.285191 0 1 40,-41.99654 39.014183,41.01072 44.285191 0 1 28.28516,10.30303 l 28.2832,-29.69491 a 78.028367,82.02144 44.285191 0 0 -56.56836,-20.60812 z" />
    </g>
  </g>
</svg>
