<?xml version="1.0" encoding="UTF-8" standalone="no"?>
<!-- Created with Inkscape (http://www.inkscape.org/) -->

<svg
   width="112.44791mm"
   height="65.058693mm"
   viewBox="0 0 112.44791 65.058693"
   version="1.1"
   id="svg57359"
   xmlns:xlink="http://www.w3.org/1999/xlink"
   xmlns="http://www.w3.org/2000/svg"
   xmlns:svg="http://www.w3.org/2000/svg">
  <defs
     id="defs57356">
    <linearGradient
       xlink:href="#linearGradient5791"
       id="linearGradient22246"
       gradientUnits="userSpaceOnUse"
       gradientTransform="matrix(0.26458333,0,0,0.26458333,60.311278,-12.356503)"
       x1="-346.8436"
       y1="320.92606"
       x2="-429.0574"
       y2="263.65042" />
    <linearGradient
       id="linearGradient5791">
      <stop
         style="stop-color:#000000;stop-opacity:1;"
         offset="0"
         id="stop5787" />
      <stop
         style="stop-color:#000000;stop-opacity:0;"
         offset="1"
         id="stop5789" />
    </linearGradient>
  </defs>
  <g
     id="layer1"
     transform="translate(101.86387,-26.05322)">
    <g
       id="g57466">
      <path
         id="path22236"
         style="fill:#98f576;fill-opacity:1;stroke-width:2.91042;stroke-linecap:round;stroke-linejoin:round"
         d="m -53.057504,26.079591 c -11.690032,0.583488 -21.166666,10.533139 -21.166666,22.223166 2.6e-5,5.613739 2.230093,10.886234 6.199611,14.657602 3.96949,3.771397 9.353311,5.732753 14.967055,5.45256 5.613718,-0.280221 10.549282,-3.588179 15.010733,-6.895243 l -7.483258,-7.109748 c -2.135743,1.931476 -4.676854,3.333112 -7.483792,3.473092 -2.800959,0.124725 -5.525426,-0.91771 -7.49853,-2.807308 -1.988396,-1.873904 -3.113431,-4.498737 -3.128486,-7.299203 0,-5.845014 4.738317,-10.819839 10.583333,-11.111585 2.806912,-0.140226 5.498915,0.840349 7.483766,2.72601 l 7.483271,-7.856778 c -3.969498,-3.771395 -9.353319,-5.73274 -14.967037,-5.452565 z" />
      <path
         id="path22238"
         style="color:#000000;fill:#f8faf7;fill-opacity:1;stroke-width:0.264583;stroke-linecap:round;-inkscape-stroke:none"
         d="m -6.7833743,26.760798 c -0.3113246,-2.65e-4 -0.6248373,0.0075 -0.9399931,0.02326 l -28.0081086,1.397849 c 0.149209,0.134591 0.301498,0.264861 0.447516,0.403593 l 2.806031,2.666502 -0.06925,0.07235 0.07131,0.0677 -3.241662,3.40341 27.9941576,-1.396815 C -1.1884139,33.072466 3.9694529,37.972568 3.9694529,44.50753 v 23.507096 c 0,6.534944 -5.1578668,11.950594 -11.6928263,12.276773 l -7.1018926,0.353986 3.381705,3.213229 -0.06925,0.07234 0.07131,0.06771 -2.740917,2.877344 c -0.120637,0.126656 -0.24716,0.246486 -0.370004,0.370523 L -7.7233674,86.90597 C 2.3616548,86.402601 10.584042,77.769434 10.584042,67.684391 V 44.177308 c 0,-9.769861 -7.7163451,-17.4064 -17.3674163,-17.416508 z" />
      <path
         id="path22240"
         style="color:#000000;fill:#f8faf7;fill-opacity:1;stroke-width:0.264583;stroke-linecap:round;-inkscape-stroke:none"
         d="m -70.550034,29.91978 -13.006943,0.649055 c -10.085017,0.503377 -18.306893,9.136028 -18.306893,19.22105 v 23.507083 c 0,10.085043 8.221876,17.897157 18.306893,17.393788 l 34.208746,-1.70741 c -0.149516,-0.134858 -0.302207,-0.265588 -0.448548,-0.404627 -1.834568,-1.743022 -3.351715,-3.758697 -4.526333,-5.96138 l -29.233865,1.458833 c -6.53497,0.326179 -11.692308,-4.573931 -11.692308,-11.108901 V 49.460188 c 0,-6.534963 5.157338,-11.950589 11.692308,-12.27677 l 8.093049,-0.403593 c 1.265158,-2.539629 2.930392,-4.854919 4.913894,-6.860045 z" />
      <path
         id="path22242"
         style="fill:url(#linearGradient22246);fill-opacity:1;stroke-width:2.91042;stroke-linecap:round;stroke-linejoin:round"
         d="m -45.529817,54.407896 c -2.135743,1.931477 -4.676854,3.333191 -7.483766,3.473172 -0.456591,0.02035 -0.909505,-0.0016 -1.359085,-0.04186 l -6.55156,9.445418 c 2.478696,0.868813 5.144929,1.263941 7.866724,1.128104 1.844464,-0.09208 3.614288,-0.515593 5.319554,-1.153953 l 6.127274,-9.12708 z" />
      <path
         id="path22244"
         style="fill:#98f576;fill-opacity:1;stroke-width:2.91042;stroke-linecap:round;stroke-linejoin:round"
         d="m -32.023137,48.752231 a 20.645005,21.701506 44.285191 0 0 -21.166658,22.223177 20.645005,21.701506 44.285191 0 0 6.19961,14.657599 20.645005,21.701505 44.285191 0 0 14.967048,5.45256 20.645005,21.701505 44.285191 0 0 14.967045,-6.946688 l -7.483263,-7.109751 a 10.322502,10.850753 44.285191 0 1 -7.483782,3.473106 10.322502,10.850753 44.285191 0 1 -7.454842,-2.755874 10.322502,10.850753 44.285191 0 1 -3.128483,-7.299219 10.322502,10.850753 44.285191 0 1 10.583325,-11.111576 10.322502,10.850753 44.285191 0 1 7.483782,2.72601 l 7.483263,-7.856779 a 20.645005,21.701506 44.285191 0 0 -14.967045,-5.452565 z" />
    </g>
  </g>
</svg>
