<svg width="116" height="62" viewBox="0 0 116 62" fill="none" xmlns="http://www.w3.org/2000/svg">
<path d="M105.7 4.59998H10.3C8.6 4.59998 7 5.29998 5.9 6.39998C4.8 7.49998 4.1 9.09998 4.1 10.8V51.1C4.1 52.8 4.8 54.4 5.9 55.5C7 56.6 8.6 57.3 10.3 57.3H105.6C107.3 57.3 108.9 56.6 110 55.5C111.1 54.4 111.8 52.8 111.8 51.1V10.9C111.8 9.19998 111.1 7.59998 110 6.49998C108.9 5.29998 107.4 4.59998 105.7 4.59998ZM16.8 9.19998H99.2C100.3 9.19998 101.2 10.1 101.2 11.2C101.2 12.2 101.6 13.2 102.3 13.8C103 14.5 103.9 14.9 104.9 14.9C106 14.9 106.9 15.8 106.9 16.9V44.9C106.9 46 106 46.9 104.9 46.9C103.9 46.9 102.9 47.3 102.3 48C101.6 48.7 101.2 49.6 101.2 50.6C101.2 51.7 100.3 52.6 99.2 52.6H16.8C15.7 52.6 14.8 51.7 14.8 50.6C14.8 49.6 14.4 48.6 13.7 48C13 47.5 12.1 47 11 47C9.9 47 9 46.1 9 45V17C9 15.9 9.9 15 11 15C12 15 13 14.6 13.6 13.9C14.3 13.2 14.7 12.3 14.7 11.3C14.8 10.1 15.7 9.19998 16.8 9.19998ZM56 28.6V23C55.5 23.2 55.1 23.4 54.6 23.7C53.6 24.4 53.1 25.2 53.1 26.3C53.1 26.8 53.2 27.2 53.4 27.5C53.6 27.8 54 28.1 54.6 28.3C55.2 28.4 55.6 28.5 56 28.6ZM60 32.8V39C60.6 38.8 61.2 38.6 61.7 38.3C62.7 37.7 63.2 36.9 63.2 35.8C63.2 34.7 62.8 33.9 61.9 33.4C61.4 33.2 60.8 33 60 32.8ZM56 17C56 15.9 56.9 15 58 15C59.1 15 60 15.9 60 17V19.3C61.9 19.4 63.5 19.8 64.8 20.4C65.7 20.9 66.2 21.4 66.2 22C66.2 23.2 65.6 23.9 64.5 23.9C64.2 23.9 63.4 23.7 62.1 23.3C61.4 23.1 60.7 22.9 60 22.8V29.2C62 29.6 63.6 30.1 64.8 30.9C66.3 31.9 67 33.4 67 35.5C67 37.7 66.2 39.5 64.5 40.8C63.3 41.7 61.8 42.3 60.1 42.6V45C60.1 46.1 59.2 47 58.1 47C57 47 56.1 46.1 56.1 45V42.7C54.7 42.6 53.3 42.3 52 41.9C50 41.2 49 40.5 49 39.7C49 38.3 49.6 37.6 50.8 37.6C51.1 37.6 52 37.9 53.6 38.4C54.4 38.7 55.2 38.9 56 39V32C55.7 32 55.5 31.9 55.3 31.9C54.7 31.8 54 31.6 53.1 31.3C52.3 31 51.6 30.7 51.1 30.3C50.6 29.9 50.2 29.4 49.8 28.7C49.4 28 49.3 27.3 49.3 26.4C49.3 24.4 50.2 22.7 52 21.3C53.2 20.4 54.5 19.8 56 19.5V17V17ZM70.5 18.5C67.3 15.3 62.9 13.3 58 13.3C53.1 13.3 48.7 15.3 45.5 18.5C42.3 21.7 40.3 26.1 40.3 31C40.3 35.9 42.3 40.3 45.5 43.5C48.7 46.7 53.1 48.7 58 48.7C62.9 48.7 67.3 46.7 70.5 43.5C73.7 40.3 75.7 35.9 75.7 31C75.6 26.1 73.6 21.7 70.5 18.5ZM45.6 48.7C44.6 48 43.6 47.2 42.7 46.3C38.8 42.4 36.4 37 36.4 31C36.4 25 38.8 19.6 42.7 15.7C43.6 14.8 44.6 14 45.6 13.3H18.5C18.1 14.6 17.4 15.8 16.5 16.8C15.6 17.7 14.4 18.5 13 18.8V43.3C14.3 43.7 15.5 44.4 16.5 45.3C17.4 46.2 18.2 47.4 18.5 48.8H45.6V48.7ZM70.4 13.3C71.4 14 72.4 14.8 73.3 15.7C77.2 19.6 79.6 25 79.6 31C79.6 37 77.2 42.4 73.3 46.3C72.4 47.2 71.4 48 70.4 48.7H97.5C97.9 47.4 98.6 46.2 99.5 45.2C100.4 44.3 101.6 43.5 103 43.2V18.7C101.7 18.3 100.5 17.6 99.5 16.7C98.6 15.8 97.8 14.6 97.5 13.2H70.4V13.3ZM10.3 0.599976H105.6C108.4 0.599976 111 1.79998 112.9 3.59998C114.8 5.49998 115.9 7.99998 115.9 10.9V51.2C115.9 54 114.7 56.6 112.9 58.5C111 60.4 108.5 61.5 105.6 61.5H10.3C7.5 61.5 4.9 60.3 3 58.5C1.1 56.6 0 54.1 0 51.2V10.9C0 8.09998 1.2 5.49998 3 3.59998C4.9 1.79998 7.5 0.599976 10.3 0.599976Z" fill="#2B2D03"/>
<path fill-rule="evenodd" clip-rule="evenodd" d="M99.2 52.8H16.8C15.7 52.8 14.8 51.9 14.8 50.8C14.8 49.8 14.4 48.7999 13.7 48.1999C13 47.4999 12.1 47 11 47C9.90001 47 9.00001 46.1 9.00001 45V17C9.00001 15.9 9.90001 15 11 15C12 15 13 14.6 13.6 13.9C14.3 13.2 14.7 12.2999 14.7 11.2999C14.7 10.1999 15.6 9.29995 16.7 9.29995H99.1C100.2 9.29995 101.1 10.1999 101.1 11.2999C101.1 12.2999 101.5 13.3 102.2 13.9C102.9 14.6 103.8 15 104.8 15C105.9 15 106.8 15.9 106.8 17V45C106.8 46.1 105.9 47 104.8 47C103.8 47 102.8 47.3999 102.2 48.0999C101.5 48.7999 101.1 49.6999 101.1 50.6999C101.2 51.8999 100.3 52.8 99.2 52.8ZM10.3 57.4H105.6C107.3 57.4 108.9 56.6999 110 55.5999C111.1 54.4999 111.8 52.8999 111.8 51.1999V10.9C111.8 9.19995 111.1 7.59995 110 6.49995C108.9 5.39995 107.3 4.69995 105.6 4.69995H10.3C8.6 4.69995 7.00001 5.39995 5.90001 6.49995C4.80001 7.59995 4.10001 9.19995 4.10001 10.9V51.1999C4.10001 52.8999 4.80001 54.4999 5.90001 55.5999C7.10001 56.6999 8.6 57.4 10.3 57.4Z" fill="#98F576"/>
<path fill-rule="evenodd" clip-rule="evenodd" d="M45.5 43.5C48.7 46.7 53.1 48.7 58 48.7C62.9 48.7 67.3 46.7 70.5 43.5C73.7 40.3 75.7 35.9 75.7 31C75.7 26.1 73.7 21.7 70.5 18.5C67.3 15.3 62.9 13.3 58 13.3C53.1 13.3 48.7 15.3 45.5 18.5C42.3 21.7 40.3 26.1 40.3 31C40.4 35.9 42.4 40.3 45.5 43.5ZM64.8 31C66.3 32 67 33.5 67 35.6C67 37.8 66.2 39.6 64.5 40.9C63.3 41.8 61.8 42.4 60.1 42.7V45C60.1 46.1 59.2 47 58.1 47C57 47 56.1 46.1 56.1 45V42.7C54.7 42.6 53.3 42.3 52 41.9C50 41.2 49 40.5 49 39.7C49 38.3 49.6 37.6 50.8 37.6C51.1 37.6 52 37.9 53.6 38.4C54.4 38.7 55.2 38.9 56 39V32L55.3 31.9C54.7 31.8 54 31.6 53.1 31.3C52.3 31 51.6 30.7 51.1 30.3C50.6 29.9 50.2 29.4 49.8 28.7C49.4 28 49.3 27.3 49.3 26.4C49.3 24.4 50.2 22.7 52 21.3C53.2 20.4 54.5 19.8 56 19.5V17C56 15.9 56.9 15 58 15C59.1 15 60 15.9 60 17V19.3C61.9 19.4 63.5 19.8 64.8 20.4C65.7 20.9 66.2 21.4 66.2 22C66.2 23.2 65.6 23.9 64.5 23.9C64.2 23.9 63.4 23.7 62.1 23.3C61.4 23.1 60.7 22.9 60 22.8V29.2C62 29.6 63.6 30.2 64.8 31Z" fill="#E8CB1C"/>
<path fill-rule="evenodd" clip-rule="evenodd" d="M56 28.6V23C55.5 23.2 55.1 23.4 54.6 23.7C53.6 24.4 53.1 25.2 53.1 26.3C53.1 26.8 53.2 27.2 53.4 27.5C53.6 27.8 54 28.1 54.6 28.3C55.2 28.4 55.6 28.5 56 28.6Z" fill="#E8CB1C"/>
<path fill-rule="evenodd" clip-rule="evenodd" d="M60 32.8V39C60.6 38.8 61.2 38.6 61.7 38.3C62.7 37.7 63.2 36.9 63.2 35.8C63.2 34.7 62.8 33.9 61.9 33.4C61.4 33.2 60.8 33 60 32.8Z" fill="#E8CB1C"/>
<path fill-rule="evenodd" clip-rule="evenodd" d="M79.6 31C79.6 37 77.2 42.4 73.3 46.3C72.4 47.2 71.4 47.9999 70.4 48.6999H97.5C97.9 47.3999 98.6 46.1999 99.5 45.1999C100.4 44.2999 101.6 43.4999 103 43.1999V18.7C101.7 18.3 100.5 17.6 99.5 16.7C98.6 15.8 97.8 14.6 97.5 13.2H70.4C71.4 13.9 72.4 14.6999 73.3 15.5999C77.2 19.5999 79.6 25 79.6 31Z" fill="#98F576"/>
<path fill-rule="evenodd" clip-rule="evenodd" d="M42.7 46.3C38.8 42.4 36.4 37 36.4 31C36.4 25 38.8 19.6 42.7 15.7C43.6 14.8 44.6 14 45.6 13.3H18.5C18.1 14.6 17.4 15.8 16.5 16.8C15.6 17.7 14.4 18.5 13 18.8V43.3C14.3 43.7 15.5 44.4 16.5 45.3C17.4 46.2 18.2 47.4 18.5 48.8H45.6C44.6 48 43.6 47.2 42.7 46.3Z" fill="#98F576"/>
</svg>
